<svg xmlns="http://www.w3.org/2000/svg" viewBox="-1305 -2062 64 64">
  <defs>
    <style>
      .cls-1 {
        fill: #fff;
      }

      .cls-2 {
        fill: #ff15b4;
      }
    </style>
  </defs>
  <g id="Group_1058" data-name="Group 1058" transform="translate(-2301 -2854)">
    <circle id="Ellipse_89" data-name="Ellipse 89" class="cls-1" cx="32" cy="32" r="32" transform="translate(996 792)"/>
    <path id="Path_1339" data-name="Path 1339" class="cls-2" d="M41.743,18.721h-15.8a1.372,1.372,0,0,1-1.208-.735l-1-2L20.9,23.552a1.416,1.416,0,0,1-1.26.893h0a1.292,1.292,0,0,1-1.26-.945l-3.15-9.346-1.47,3.675a1.365,1.365,0,0,1-1.26.84H7.351a1.365,1.365,0,1,1,0-2.73h4.2l2.52-6.3a1.311,1.311,0,0,1,1.313-.84,1.357,1.357,0,0,1,1.26.945l3.045,9.189,2.573-6.878a1.431,1.431,0,0,1,1.208-.893,1.4,1.4,0,0,1,1.313.735l2.048,4.043H37.122a14.962,14.962,0,0,0,1.1-5.513c-.053-5.093-2.94-9.294-8.349-10.291C21.528-1.389,19.06,7.065,19.06,7.065S16.645-1.389,8.348.187C2.94,1.184.052,5.385,0,10.478-.053,23.657,19.06,33.056,19.06,33.056s9.714-4.726,15.279-12.234h7.3a1.053,1.053,0,0,0,1.05-1.05A1,1,0,0,0,41.743,18.721Z" transform="translate(1008.308 810.022)"/>
  </g>
</svg>
